<?xml version="1.0" encoding="utf-8"?>
<!-- Generator: Adobe Illustrator 16.0.4, SVG Export Plug-In . SVG Version: 6.00 Build 0)  -->
<!DOCTYPE svg PUBLIC "-//W3C//DTD SVG 1.1//EN" "http://www.w3.org/Graphics/SVG/1.1/DTD/svg11.dtd">
<svg version="1.1" id="Layer_1" xmlns="http://www.w3.org/2000/svg" xmlns:xlink="http://www.w3.org/1999/xlink" x="0px" y="0px"
	 width="424.594px" height="363.802px" viewBox="0 0 424.594 363.802" enable-background="new 0 0 424.594 363.802"
	 xml:space="preserve">
<g>
	<g>
		<path fill="#231F20" d="M66.311,140.685c-10.016-5.379-17.854-12.791-23.519-22.234c-5.666-9.44-8.498-20.055-8.498-31.845
			c0-11.785,2.832-22.401,8.498-31.845c5.665-9.442,13.503-16.849,23.519-22.229c10.013-5.378,21.258-8.068,33.733-8.068
			c12.473,0,23.69,2.69,33.647,8.068c9.956,5.381,17.794,12.787,23.52,22.229c5.721,9.443,8.583,20.06,8.583,31.845
			c0,11.79-2.862,22.404-8.583,31.845c-5.726,9.443-13.563,16.855-23.52,22.234c-9.957,5.38-21.175,8.068-33.647,8.068
			C87.568,148.753,76.323,146.064,66.311,140.685z M119.271,120.169c5.722-3.261,10.214-7.812,13.476-13.648
			c3.263-5.837,4.893-12.474,4.893-19.915c0-7.438-1.63-14.076-4.893-19.912c-3.262-5.839-7.754-10.386-13.476-13.648
			c-5.724-3.263-12.132-4.894-19.228-4.894c-7.097,0-13.506,1.631-19.228,4.894c-5.724,3.263-10.214,7.81-13.476,13.648
			c-3.262,5.836-4.893,12.475-4.893,19.912c0,7.441,1.631,14.078,4.893,19.915c3.262,5.836,7.752,10.388,13.476,13.648
			c5.722,3.261,12.131,4.891,19.228,4.891C107.14,125.06,113.548,123.43,119.271,120.169z"/>
		<path fill="#231F20" d="M268.709,63.261c7.041,6.865,10.558,17.054,10.558,30.556v52.874h-26.779V97.937
			c0-7.322-1.604-12.789-4.806-16.394c-3.206-3.604-7.842-5.407-13.906-5.407c-6.754,0-12.134,2.088-16.136,6.267
			c-4.01,4.178-6.011,10.386-6.011,18.625v45.663h-26.781V19.312h26.781v44.635c3.546-3.546,7.838-6.267,12.875-8.154
			c5.036-1.891,10.528-2.833,16.48-2.833C252.428,52.959,261.672,56.392,268.709,63.261z"/>
		<path fill="#231F20" d="M325.619,119.31c3.091,3.034,4.636,7.012,4.636,11.933c0,2.29-0.287,4.576-0.859,6.865
			c-0.574,2.292-1.832,5.725-3.776,10.302l-9.784,24.72H298.84l7.552-27.295c-2.862-1.143-5.123-3.004-6.781-5.581
			c-1.659-2.573-2.489-5.578-2.489-9.011c0-4.921,1.571-8.898,4.722-11.933c3.146-3.03,7.123-4.548,11.93-4.548
			C318.58,114.762,322.528,116.279,325.619,119.31z"/>
	</g>
	<g>
		<path fill="#231F20" d="M120.35,259.686c7.039,6.865,10.558,17.054,10.558,30.556v52.874h-26.78v-48.754
			c0-7.322-1.604-12.79-4.807-16.394c-3.205-3.604-7.841-5.407-13.905-5.407c-6.754,0-12.132,2.087-16.137,6.266
			c-4.008,4.179-6.008,10.386-6.008,18.626v45.663H36.488V215.736h26.782v44.634c3.545-3.545,7.837-6.266,12.875-8.153
			c5.034-1.891,10.528-2.833,16.479-2.833C104.068,249.384,113.312,252.816,120.35,259.686z"/>
		<path fill="#231F20" d="M225.326,259.598c7.667,6.811,11.502,17.083,11.502,30.815v52.702h-25.062v-11.5
			c-5.038,8.583-14.42,12.875-28.155,12.875c-7.098,0-13.248-1.203-18.453-3.604c-5.21-2.405-9.186-5.721-11.933-9.958
			c-2.745-4.233-4.12-9.041-4.12-14.42c0-8.584,3.231-15.336,9.698-20.258c6.468-4.919,16.453-7.382,29.959-7.382h21.287
			c0-5.838-1.777-10.327-5.322-13.477c-3.551-3.146-8.871-4.721-15.965-4.721c-4.923,0-9.759,0.772-14.506,2.317
			c-4.753,1.547-8.784,3.634-12.104,6.266l-9.615-18.712c5.036-3.545,11.073-6.293,18.112-8.239
			c7.039-1.945,14.275-2.919,21.717-2.919C206.671,249.384,217.658,252.791,225.326,259.598z M202.494,323.287
			c3.548-2.114,6.064-5.235,7.555-9.354v-9.443h-18.37c-10.985,0-16.479,3.606-16.479,10.817c0,3.433,1.343,6.153,4.034,8.152
			c2.688,2.005,6.379,3.005,11.073,3.005C194.881,326.464,198.946,325.407,202.494,323.287z"/>
		<path fill="#231F20" d="M262.405,233.591c-3.089-2.86-4.633-6.408-4.633-10.646c0-4.233,1.544-7.781,4.633-10.642
			c3.091-2.86,7.096-4.292,12.019-4.292c4.918,0,8.927,1.373,12.018,4.12c3.09,2.745,4.634,6.178,4.634,10.298
			c0,4.464-1.544,8.156-4.634,11.073c-3.091,2.919-7.1,4.38-12.018,4.38C269.501,237.883,265.496,236.453,262.405,233.591z
			 M261.033,250.758h26.781v92.357h-26.781V250.758z"/>
		<g>
			<path fill="#DD5942" d="M362.06,339.94c-3.149-3.032-4.722-6.721-4.722-11.073c0-4.348,1.545-7.981,4.636-10.901
				c3.091-2.919,7.039-4.377,11.847-4.377c4.805,0,8.755,1.458,11.844,4.377c3.089,2.92,4.636,6.554,4.636,10.901
				c0,4.353-1.576,8.041-4.722,11.073c-3.149,3.032-7.068,4.55-11.758,4.55C369.126,344.49,365.207,342.973,362.06,339.94z"/>
			<polygon fill="#231F20" points="357.854,222.945 389.784,222.945 384.461,301.4 363.174,301.4 			"/>
		</g>
	</g>
</g>
</svg>
