<?xml version="1.0" encoding="utf-8"?>
<!-- Generator: Adobe Illustrator 16.0.4, SVG Export Plug-In . SVG Version: 6.00 Build 0)  -->
<!DOCTYPE svg PUBLIC "-//W3C//DTD SVG 1.1//EN" "http://www.w3.org/Graphics/SVG/1.1/DTD/svg11.dtd">
<svg version="1.1" id="Layer_1" xmlns="http://www.w3.org/2000/svg" xmlns:xlink="http://www.w3.org/1999/xlink" x="0px" y="0px"
	 width="960px" height="2062px" viewBox="0 0 960 2062" enable-background="new 0 0 960 2062" xml:space="preserve">
<rect x="-39" y="1209" fill="#294857" width="1038" height="853"/>
<rect x="-22" y="-9" fill="#D4DCE3" width="1004" height="1291"/>
<rect x="82" y="54" fill="#D4DCE3" width="829" height="370"/>
<rect x="41" y="54" fill="#DD5942" width="457" height="370"/>
<rect x="406.669" y="168.329" fill="none" width="146.661" height="64.596"/>
<text transform="matrix(1 0 0 1 406.6694 227.6875)" fill="#231F20" font-family="'Montserrat-Bold'" font-size="80">Oh,</text>
<rect x="41" y="13.057" fill="none" width="200.025" height="64.596"/>
<text transform="matrix(1 0 0 1 41 27.8965)" fill="#231F20" font-family="'Montserrat-SemiBold'" font-size="20">Colin</text>
<rect x="136.47" y="1408.998" fill="none" width="163.563" height="25.988"/>
<text transform="matrix(1 0 0 1 136.4697 1423.8379)" fill="#D4DCE3" font-family="'Montserrat-SemiBold'" font-size="20">Development</text>
<rect x="136.47" y="1473.019" fill="none" width="301.557" height="162.481"/>
<text transform="matrix(1 0 0 1 136.4697 1487.6191)"><tspan x="0" y="0" fill="#D4DCE3" font-family="'WorkSans-Regular'" font-size="20">Lorem ipsum dolor sit amet, </tspan><tspan x="0" y="24" fill="#D4DCE3" font-family="'WorkSans-Regular'" font-size="20">consectetur adipiscing elit, </tspan><tspan x="0" y="48" fill="#D4DCE3" font-family="'WorkSans-Regular'" font-size="20">sed do eiusmod tempor incid</tspan><tspan x="289.353" y="48" fill="#D4DCE3" font-family="'WorkSans-Regular'" font-size="20">-</tspan><tspan x="0" y="72" fill="#D4DCE3" font-family="'WorkSans-Regular'" font-size="20">idunt ut labore et dolore </tspan><tspan x="0" y="96" fill="#D4DCE3" font-family="'WorkSans-Regular'" font-size="20">magna aliqua. Ut enim ad </tspan><tspan x="0" y="120" fill="#D4DCE3" font-family="'WorkSans-Regular'" font-size="20">minim veniam</tspan></text>
<rect x="136.47" y="1669.984" fill="none" width="163.563" height="25.988"/>
<text transform="matrix(1 0 0 1 136.4697 1684.8242)" fill="#D4DCE3" font-family="'Montserrat-SemiBold'" font-size="20">Design</text>
<rect x="136.47" y="1734.005" fill="none" width="301.557" height="162.481"/>
<text transform="matrix(1 0 0 1 136.4697 1748.6055)"><tspan x="0" y="0" fill="#D4DCE3" font-family="'WorkSans-Regular'" font-size="20">Lorem ipsum dolor sit amet, </tspan><tspan x="0" y="24" fill="#D4DCE3" font-family="'WorkSans-Regular'" font-size="20">consectetur adipiscing elit, </tspan><tspan x="0" y="48" fill="#D4DCE3" font-family="'WorkSans-Regular'" font-size="20">sed do eiusmod tempor incid</tspan><tspan x="289.353" y="48" fill="#D4DCE3" font-family="'WorkSans-Regular'" font-size="20">-</tspan><tspan x="0" y="72" fill="#D4DCE3" font-family="'WorkSans-Regular'" font-size="20">idunt ut labore et dolore </tspan><tspan x="0" y="96" fill="#D4DCE3" font-family="'WorkSans-Regular'" font-size="20">magna aliqua. Ut enim ad </tspan><tspan x="0" y="120" fill="#D4DCE3" font-family="'WorkSans-Regular'" font-size="20">minim veniam</tspan></text>
<rect x="587.947" y="1603.988" fill="none" width="163.563" height="25.988"/>
<text transform="matrix(1 0 0 1 587.9468 1618.8281)" fill="#D4DCE3" font-family="'Montserrat-SemiBold'" font-size="20">Tools</text>
<rect x="587.947" y="1668.009" fill="none" width="301.557" height="162.481"/>
<text transform="matrix(1 0 0 1 587.9468 1682.6094)"><tspan x="0" y="0" fill="#D4DCE3" font-family="'WorkSans-Regular'" font-size="20">Lorem ipsum dolor sit amet, </tspan><tspan x="0" y="24" fill="#D4DCE3" font-family="'WorkSans-Regular'" font-size="20">consectetur adipiscing elit, </tspan><tspan x="0" y="48" fill="#D4DCE3" font-family="'WorkSans-Regular'" font-size="20">sed do eiusmod tempor incid</tspan><tspan x="289.353" y="48" fill="#D4DCE3" font-family="'WorkSans-Regular'" font-size="20">-</tspan><tspan x="0" y="72" fill="#D4DCE3" font-family="'WorkSans-Regular'" font-size="20">idunt ut labore et dolore </tspan><tspan x="0" y="96" fill="#D4DCE3" font-family="'WorkSans-Regular'" font-size="20">magna aliqua. Ut enim ad </tspan><tspan x="0" y="120" fill="#D4DCE3" font-family="'WorkSans-Regular'" font-size="20">minim veniam</tspan></text>
<rect x="759.339" y="22.206" fill="none" width="76.718" height="32.298"/>
<text transform="matrix(1 0 0 1 759.3389 37.0459)" fill="#231F20" font-family="'Montserrat-SemiBold'" font-size="20">work</text>
<rect x="836.057" y="22.206" fill="none" width="76.718" height="32.298"/>
<text transform="matrix(1 0 0 1 836.0571 37.0459)" fill="#231F20" font-family="'Montserrat-SemiBold'" font-size="20">info</text>
<rect x="410.625" y="259.833" fill="none" width="175.322" height="63.088"/>
<text transform="matrix(1 0 0 1 410.6255 319.1914)" fill="#231F20" font-family="'Montserrat-Bold'" font-size="80">hai !</text>
<rect x="82" y="500.5" fill="none" width="175.322" height="63.088"/>
<text transform="matrix(1 0 0 1 82 559.8594)" fill="#231F20" font-family="'Montserrat-Bold'" font-size="80">Wo</text>
<rect x="759.339" y="500.5" fill="none" width="175.322" height="63.088"/>
<text transform="matrix(1 0 0 1 759.3389 559.8594)" fill="#231F20" font-family="'Montserrat-Bold'" font-size="80">rk</text>
<path fill="#DD5942" d="M572.245,321.835c-1.542-1.483-2.311-3.29-2.311-5.42c0-2.128,0.756-3.907,2.27-5.335
	c1.512-1.429,3.444-2.143,5.797-2.143s4.285,0.714,5.798,2.143c1.513,1.428,2.269,3.207,2.269,5.335c0,2.13-0.771,3.937-2.311,5.42
	c-1.541,1.485-3.459,2.227-5.755,2.227C575.702,324.062,573.785,323.32,572.245,321.835z"/>
<rect x="82" y="631" fill="#294857" width="227" height="225"/>
<rect x="351" y="631" fill="#294857" width="227" height="225"/>
<rect x="620" y="631" fill="#294857" width="227" height="225"/>
<rect x="82" y="907" fill="#294857" width="227" height="225"/>
<rect x="351" y="907" fill="#294857" width="227" height="225"/>
<rect x="620" y="907" fill="#294857" width="227" height="225"/>
</svg>
